HIERARCHY
ROOT Hips
{
	OFFSET 0.000000 89.005402 0.000000
	CHANNELS 6 Xposition Yposition Zposition Xrotation Yrotation Zrotation
	JOINT Spine
	{
		OFFSET 0.116900 10.681000 0.373400
		CHANNELS 3 Xrotation Yrotation Zrotation
		JOINT Spine1
		{
			OFFSET 0.000000 13.840401 0.053500
			CHANNELS 3 Xrotation Yrotation Zrotation
			JOINT Spine2
			{
				OFFSET 0.000000 14.712700 -0.366200
				CHANNELS 3 Xrotation Yrotation Zrotation
				JOINT Neck
				{
					OFFSET 0.000000 35.415497 -3.314200
					CHANNELS 3 Xrotation Yrotation Zrotation
					JOINT Head
					{
						OFFSET 0.000000 16.899200 1.218300
						CHANNELS 3 Xrotation Yrotation Zrotation
						JOINT HeadTop_End
						{
							OFFSET 0.000000 22.206207 2.192500
							CHANNELS 3 Xrotation Yrotation Zrotation
							End Site
							{
								OFFSET 0.000000 22.314178 0.000000
							}
						}
					}
				}
				JOINT LeftShoulder
				{
					OFFSET 12.896400 26.716293 -4.548400
					CHANNELS 3 Xrotation Yrotation Zrotation
					JOINT LeftArm
					{
						OFFSET 19.027000 -4.857010 -1.718400
						CHANNELS 3 Xrotation Yrotation Zrotation
						JOINT LeftForeArm
						{
							OFFSET 24.179897 0.000000 0.000000
							CHANNELS 3 Xrotation Yrotation Zrotation
							JOINT LeftHand
							{
								OFFSET 27.156403 0.000000 0.000000
								CHANNELS 3 Xrotation Yrotation Zrotation
								JOINT LeftHandIndex1
								{
									OFFSET 16.441200 0.000000 0.000000
									CHANNELS 3 Xrotation Yrotation Zrotation
									JOINT LeftHandIndex2
									{
										OFFSET 4.821899 0.000000 0.000000
										CHANNELS 3 Xrotation Yrotation Zrotation
										JOINT LeftHandIndex3
										{
											OFFSET 6.386497 0.000000 0.000000
											CHANNELS 3 Xrotation Yrotation Zrotation
											JOINT LeftHandIndex4
											{
												OFFSET 5.188988 0.000000 0.000000
												CHANNELS 3 Xrotation Yrotation Zrotation
												End Site
												{
													OFFSET -0.178703 5.185913 0.000177
												}
											}
										}
									}
								}
								JOINT LeftHandThumb1
								{
									OFFSET 6.534897 -5.032593 5.900300
									CHANNELS 3 Xrotation Yrotation Zrotation
									JOINT LeftHandThumb2
									{
										OFFSET 3.818176 -2.204422 2.204423
										CHANNELS 3 Xrotation Yrotation Zrotation
										JOINT LeftHandThumb3
										{
											OFFSET 3.252098 -1.877594 1.877601
											CHANNELS 3 Xrotation Yrotation Zrotation
											JOINT LeftHandThumb4
											{
												OFFSET 5.251778 -3.032120 3.032117
												CHANNELS 3 Xrotation Yrotation Zrotation
												End Site
												{
													OFFSET 0.000023 6.780014 0.000000
												}
											}
										}
									}
								}
							}
						}
					}
				}
				JOINT RightShoulder
				{
					OFFSET -12.896300 26.716293 -4.548400
					CHANNELS 3 Xrotation Yrotation Zrotation
					JOINT RightArm
					{
						OFFSET -19.027000 -4.857010 -1.718400
						CHANNELS 3 Xrotation Yrotation Zrotation
						JOINT RightForeArm
						{
							OFFSET -24.179897 0.000000 0.000000
							CHANNELS 3 Xrotation Yrotation Zrotation
							JOINT RightHand
							{
								OFFSET -27.156403 0.000000 0.000000
								CHANNELS 3 Xrotation Yrotation Zrotation
								JOINT RightHandThumb1
								{
									OFFSET -6.591202 -4.852203 5.988100
									CHANNELS 3 Xrotation Yrotation Zrotation
									JOINT RightHandThumb2
									{
										OFFSET -3.818176 -2.204422 2.204423
										CHANNELS 3 Xrotation Yrotation Zrotation
										JOINT RightHandThumb3
										{
											OFFSET -3.252098 -1.877594 1.877601
											CHANNELS 3 Xrotation Yrotation Zrotation
											JOINT RightHandThumb4
											{
												OFFSET -5.251778 -3.032120 3.032117
												CHANNELS 3 Xrotation Yrotation Zrotation
												End Site
												{
													OFFSET -0.000023 6.780014 0.000000
												}
											}
										}
									}
								}
								JOINT RightHandIndex1
								{
									OFFSET -16.029404 0.000000 0.000000
									CHANNELS 3 Xrotation Yrotation Zrotation
									JOINT RightHandIndex2
									{
										OFFSET -5.213303 0.000000 0.000000
										CHANNELS 3 Xrotation Yrotation Zrotation
										JOINT RightHandIndex3
										{
											OFFSET -6.386528 0.000000 0.000000
											CHANNELS 3 Xrotation Yrotation Zrotation
											JOINT RightHandIndex4
											{
												OFFSET -5.189026 0.000000 0.000000
												CHANNELS 3 Xrotation Yrotation Zrotation
												End Site
												{
													OFFSET 0.236702 5.183624 0.001972
												}
											}
										}
									}
								}
							}
						}
					}
				}
			}
		}
	}
	JOINT LeftUpLeg
	{
		OFFSET 14.073000 -7.904099 -1.463000
		CHANNELS 3 Xrotation Yrotation Zrotation
		JOINT LeftLeg
		{
			OFFSET -0.109806 -34.073280 4.093200
			CHANNELS 3 Xrotation Yrotation Zrotation
			JOINT LeftFoot
			{
				OFFSET 0.109806 -29.899420 -6.319000
				CHANNELS 3 Xrotation Yrotation Zrotation
				JOINT LeftToeBase
				{
					OFFSET 1.551100 -14.988700 20.535801
					CHANNELS 3 Xrotation Yrotation Zrotation
					JOINT LeftToe_End
					{
						OFFSET 0.221200 0.570800 13.248301
						CHANNELS 3 Xrotation Yrotation Zrotation
						End Site
						{
							OFFSET 0.000000 13.262435 0.000000
						}
					}
				}
			}
		}
	}
	JOINT RightUpLeg
	{
		OFFSET -13.839300 -7.904099 -1.463000
		CHANNELS 3 Xrotation Yrotation Zrotation
		JOINT RightLeg
		{
			OFFSET 0.109694 -34.073219 4.093300
			CHANNELS 3 Xrotation Yrotation Zrotation
			JOINT RightFoot
			{
				OFFSET -0.109694 -29.899384 -6.319200
				CHANNELS 3 Xrotation Yrotation Zrotation
				JOINT RightToeBase
				{
					OFFSET -1.551100 -14.988700 20.535801
					CHANNELS 3 Xrotation Yrotation Zrotation
					JOINT RightToe_End
					{
						OFFSET -0.221200 0.570900 13.248299
						CHANNELS 3 Xrotation Yrotation Zrotation
						End Site
						{
							OFFSET 0.000000 13.262440 0.000000
						}
					}
				}
			}
		}
	}
}
MOTION
Frames: 8
Frame Time: 0.033333
0.030832 83.704048 -0.461588 -16.918893 -39.050906 -9.126740 7.991344 -0.021617 -0.422829 16.413464 -0.125187 -0.751157 16.413513 -0.192916 -0.725276 0.367415 7.480963 0.837549 -6.982140 21.597268 11.882997 0.000002 -0.000000 -0.000001 -37.571071 -4.822520 1.545821 -41.628439 -7.015814 -61.684367 -0.000078 -64.995923 -0.000073 -119.359618 1.120070 32.550271 -0.212819 3.933705 -36.747128 2.942477 5.079106 -60.148415 0.514019 2.401596 -24.158826 -0.000002 -0.000001 -0.000001 4.709226 9.560364 3.111992 19.473177 -1.474909 7.636921 -4.536185 -9.613109 1.492979 0.000000 -0.000001 0.000000 -41.176294 -8.605653 -9.942309 -46.819748 58.242963 100.948734 0.000535 98.442997 -0.000494 -52.463110 -17.216638 -29.273098 8.377140 -4.904124 11.021997 21.620182 -18.183900 -18.379199 -0.702872 -49.821206 -32.535148 0.000001 -0.000001 -0.000001 -0.920035 1.683592 12.434972 0.748126 -2.533462 32.898293 0.615630 -2.316069 29.767822 -0.000000 0.000000 0.000001 -18.948388 43.724904 28.082702 25.638314 -0.348114 -0.846369 -1.636527 1.768154 -4.566718 -0.005796 -0.000002 -0.000002 0.000000 0.000000 0.000000 8.312534 5.059253 -7.126867 30.363507 0.117119 1.162470 -23.877950 -17.947466 4.992417 -0.020505 0.000002 -0.000000 0.000000 0.000003 0.000000 
-0.018243 83.912697 -0.517786 -16.887761 -39.325190 -9.450588 8.223743 -0.091242 -0.089086 16.148749 -0.035203 -0.751155 16.148174 -0.107408 -0.725281 0.454544 7.511691 0.901850 -6.093633 21.578352 11.400212 0.000000 -0.000001 -0.000000 -37.352986 -4.498770 1.378229 -41.581024 -7.480092 -61.621291 0.000120 -64.845017 0.000109 -119.644956 1.086092 32.447766 -0.255247 3.882681 -36.829671 2.942474 5.079098 -60.148442 0.514024 2.401596 -24.158830 0.000001 0.000001 -0.000001 4.622038 9.315827 3.103667 19.473177 -1.474906 7.636918 -4.536184 -9.613106 1.492976 -0.000001 -0.000001 -0.000000 -39.932240 -8.500231 -9.009478 -46.900676 58.521669 99.929206 0.000317 98.629339 -0.000311 -52.434577 -17.649224 -29.516970 8.377140 -4.904123 11.021995 21.620183 -18.183902 -18.379204 -0.702871 -49.821206 -32.535148 -0.000002 0.000003 0.000001 -0.925132 1.676328 12.508637 0.763805 -2.557528 33.251437 0.615630 -2.316070 29.767812 -0.000000 -0.000000 -0.000002 -18.245156 42.967340 27.626551 24.902264 -0.005844 -0.662986 -1.232090 2.464244 -5.034471 -0.074618 0.000003 -0.000000 0.000000 0.000001 0.000000 7.827899 5.242488 -6.911803 29.937962 0.053890 1.126826 -21.374761 -17.942154 5.855987 -1.425773 0.001056 -0.189286 -0.000000 -0.000000 -0.000000 
-0.164684 83.959167 -0.674457 -17.014594 -39.881550 -9.888839 8.808109 -0.015700 0.184946 15.879428 0.083040 -0.742150 15.878493 0.008389 -0.717347 0.410138 7.543108 0.958462 -5.186556 21.659942 10.689967 -0.000000 -0.000000 -0.000002 -37.128847 -4.165102 1.332643 -41.811235 -7.614394 -61.516871 -0.000083 -64.981532 -0.000087 -119.733886 1.029458 32.638718 -0.297829 3.831784 -36.912238 2.942475 5.079090 -60.148415 0.514019 2.401595 -24.158826 -0.000004 0.000001 -0.000001 4.534989 9.071206 3.095213 19.473178 -1.474902 7.636917 -4.536185 -9.613102 1.492977 0.000002 0.000001 -0.000000 -38.684911 -8.306098 -8.004294 -47.445677 58.774843 98.955145 0.000269 98.788865 -0.000275 -52.620430 -18.047496 -29.709359 8.377139 -4.904124 11.021997 21.620182 -18.183902 -18.379204 -0.702870 -49.821206 -32.535145 -0.000002 -0.000001 0.000004 -0.930221 1.669048 12.582309 0.779647 -2.581483 33.604589 0.615631 -2.316071 29.767812 -0.000000 -0.000000 -0.000001 -17.156312 40.845392 26.843398 25.014077 0.584546 -0.548697 -1.106544 4.489858 -5.745443 -0.279771 -0.000001 -0.000002 0.000000 0.000000 -0.000000 6.210583 5.611797 -6.383259 32.064091 0.166737 0.872073 -20.362814 -17.723289 6.195058 -3.138079 0.000005 0.000003 -0.000000 0.000002 0.000000 
-0.430723 83.664894 -0.997966 -17.309914 -40.858086 -10.281538 9.862804 0.203038 0.177720 15.614091 0.230610 -0.689717 15.612516 0.153531 -0.666662 0.157849 7.649075 0.866329 -4.417459 21.955124 9.678539 -0.000002 0.000000 -0.000001 -36.899346 -3.813015 1.403699 -42.539077 -7.209631 -61.343862 -0.000007 -65.439803 -0.000014 -119.508981 1.060593 33.184720 -0.340565 3.780983 -36.994842 2.942541 5.079131 -60.149112 0.514021 2.401595 -24.158828 -0.000006 -0.000001 0.000003 4.448081 8.826492 3.086630 19.473178 -1.474903 7.636918 -4.536184 -9.613103 1.492975 0.000001 0.000001 -0.000001 -37.409609 -7.911508 -6.837862 -48.693576 59.078049 97.985826 0.000311 98.796548 -0.000284 -53.083308 -18.310953 -29.865173 8.377140 -4.904123 11.021997 21.620183 -18.183902 -18.379204 -0.702869 -49.821206 -32.535148 0.000001 0.000001 -0.000000 -0.935289 1.661774 12.655959 0.795615 -2.605365 33.957768 0.615631 -2.316071 29.767819 0.000000 -0.000000 -0.000001 -16.052300 37.432609 25.888188 26.535901 1.416392 -0.525722 -1.533009 7.761970 -6.581780 -0.708529 0.000001 -0.000001 0.000000 0.000001 -0.000000 2.878588 6.097700 -5.905578 37.239629 1.091465 0.405435 -19.697188 -17.447939 6.850256 -5.584749 0.000142 -0.012232 0.000000 0.000000 0.000000 
-0.819319 83.013206 -1.501033 -17.706352 -42.212249 -10.485748 11.410570 0.449338 -0.172911 15.358563 0.389300 -0.603728 15.355770 0.308264 -0.583509 -0.342540 7.866101 0.544704 -3.987834 22.456518 8.385284 -0.000000 0.000000 -0.000002 -36.670930 -3.468626 1.553121 -43.898152 -6.344414 -61.105837 -0.000048 -66.107236 -0.000043 -118.991225 1.239730 33.969693 -0.383448 3.730325 -37.077450 2.942685 5.079213 -60.150635 0.514021 2.401596 -24.158828 0.000003 -0.000001 -0.000000 4.361314 8.581709 3.077915 19.473178 -1.474905 7.636919 -4.536186 -9.613102 1.492975 0.000001 0.000001 -0.000001 -36.098776 -7.226396 -5.457584 -50.491337 59.469269 96.807167 -0.000005 98.678379 0.000018 -53.710716 -18.417624 -30.032635 8.377140 -4.904123 11.021997 21.620183 -18.183902 -18.379202 -0.702874 -49.821206 -32.535145 0.000002 0.000001 0.000000 -0.940357 1.654498 12.729618 0.811745 -2.629114 34.310960 0.615631 -2.316070 29.767819 0.000000 -0.000000 0.000001 -14.823741 33.088616 24.971465 28.805729 2.222818 -0.777271 -1.764773 11.738830 -8.674444 -1.191858 0.000005 -0.000001 0.000000 0.000001 0.000000 -2.334985 7.068430 -5.551804 45.149705 2.505319 -0.137175 -18.416056 -17.165741 7.845777 -9.603545 0.003488 -0.056338 0.000000 0.000002 0.000000 
-1.265816 82.252319 -2.152153 -17.867980 -43.407218 -10.372663 13.244299 0.489994 -0.555830 15.105257 0.519532 -0.544763 15.100722 0.433075 -0.528814 -1.023193 8.104523 0.128766 -3.997300 22.892028 6.979605 -0.000000 0.000000 -0.000001 -36.451415 -3.235362 1.672256 -45.781774 -5.544118 -60.833374 0.000015 -66.650939 0.000022 -118.393242 1.475014 34.669555 -0.426492 3.679797 -37.160088 2.942801 5.079294 -60.152165 0.514019 2.401596 -24.158826 -0.000002 0.000001 0.000002 4.274679 8.336826 3.069073 19.473177 -1.474908 7.636917 -4.536184 -9.613104 1.492975 -0.000001 -0.000001 -0.000001 -34.789039 -6.309509 -3.959182 -52.156585 59.800772 95.113430 0.000096 98.633635 -0.000134 -54.193999 -18.491450 -30.192028 8.377140 -4.904124 11.021997 21.620183 -18.183902 -18.379202 -0.702874 -49.821206 -32.535145 -0.000000 0.000001 -0.000000 -0.945434 1.647221 12.803260 0.828013 -2.652776 34.664166 0.615630 -2.316070 29.767819 0.000000 -0.000000 0.000000 -13.593769 28.452384 24.050184 30.817096 3.070488 -1.474095 -1.781926 15.759401 -10.972100 -1.356966 -0.000007 -0.000002 0.000000 -0.000000 0.000000 -7.885170 7.574638 -5.852742 52.156342 5.871085 0.007915 -16.679879 -16.852756 7.466293 -13.508423 0.011271 -0.081613 -0.000000 -0.000000 0.000000 
-1.675581 81.549728 -2.988723 -17.199053 -43.495420 -9.686691 14.995226 0.131472 -0.489597 14.835594 0.586195 -0.566202 14.828727 0.493929 -0.556085 -1.726226 8.170569 -0.062605 -4.344384 22.831569 5.678084 0.000000 -0.000001 -0.000002 -36.237377 -3.287539 1.568722 -47.866867 -5.392844 -60.538842 -0.000064 -66.747942 -0.000043 -117.931945 1.537775 35.020388 -0.469676 3.629376 -37.242737 2.942933 5.079370 -60.153667 0.514023 2.401597 -24.158823 0.000002 -0.000000 -0.000002 4.188177 8.091868 3.060103 19.473178 -1.474899 7.636916 -4.536184 -9.613101 1.492976 -0.000000 0.000002 -0.000002 -33.537141 -5.376039 -2.618832 -52.956786 59.722416 92.754645 0.000102 98.822968 -0.000117 -54.310598 -18.725020 -30.158516 8.377140 -4.904123 11.021997 21.620182 -18.183900 -18.379201 -0.702875 -49.821206 -32.535145 -0.000001 0.000000 -0.000001 -0.950477 1.639923 12.876927 0.844434 -2.676356 35.017400 0.615630 -2.316070 29.767815 -0.000001 -0.000000 -0.000001 -13.263891 23.233744 22.898318 32.470296 4.240599 -1.927649 -1.611504 19.285504 -12.594148 -1.100218 0.000003 0.000001 -0.000000 -0.000000 0.000000 -10.882844 8.713562 -5.219412 55.030315 7.421100 -0.435139 -16.865173 -17.032812 6.942523 -13.944479 0.007171 -0.041591 -0.000000 -0.000003 -0.000000 
-2.054482 80.786568 -4.001864 -15.482985 -41.856038 -8.337101 16.390692 -0.618345 0.245579 14.549459 0.590435 -0.649309 14.539239 0.493187 -0.645839 -2.304654 7.941864 0.189227 -4.791522 22.049741 4.605282 -0.000002 0.000001 -0.000000 -36.019122 -3.759725 1.053086 -49.784023 -5.949147 -60.189130 0.000175 -66.415708 0.000172 -117.622947 1.257501 35.092597 -0.513016 3.579098 -37.325433 2.943069 5.079448 -60.155177 0.514020 2.401595 -24.158828 -0.000001 0.000002 -0.000001 4.101812 7.846813 3.050999 19.473175 -1.474905 7.636922 -4.536181 -9.613104 1.492976 -0.000000 -0.000002 0.000002 -32.360559 -4.600635 -1.689242 -52.762259 59.006612 89.903629 0.000201 99.210103 -0.000210 -54.202913 -19.258990 -29.743169 8.377138 -4.904124 11.021997 21.620180 -18.183900 -18.379202 -0.702876 -49.821210 -32.535148 -0.000001 0.000000 -0.000001 -0.955506 1.632641 12.950570 0.860999 -2.699813 35.370633 0.615630 -2.316071 29.767815 -0.000000 -0.000001 0.000001 -14.619929 16.888314 21.645547 34.399667 5.526116 -1.652444 -0.789223 21.946766 -14.396188 -0.790364 -0.000006 0.000002 -0.000000 0.000001 0.000000 -11.415216 9.838920 -3.548396 55.196453 7.498809 -1.571875 -20.016539 -17.294992 6.059775 -11.409124 0.002697 -0.023978 0.000000 -0.000002 -0.000000 
